<?xml version="1.0" encoding="UTF-8" standalone="no"?>
<!DOCTYPE svg PUBLIC "-//W3C//DTD SVG 1.1//EN"
 "http://www.w3.org/Graphics/SVG/1.1/DTD/svg11.dtd">
<!-- Generated by graphviz version 2.43.0 (0)
 -->
<!-- Title: %3 Pages: 1 -->
<svg width="436pt" height="95pt"
 viewBox="0.00 0.00 436.35 95.00" xmlns="http://www.w3.org/2000/svg" xmlns:xlink="http://www.w3.org/1999/xlink">
<g id="graph0" class="graph" transform="scale(1 1) rotate(0) translate(4 91)">
<title>%3</title>
<polygon fill="white" stroke="transparent" points="-4,4 -4,-91 432.35,-91 432.35,4 -4,4"/>
<!-- a -->
<g id="node1" class="node">
<title>a</title>
<ellipse fill="white" stroke="black" cx="55" cy="-18" rx="27" ry="18"/>
<text text-anchor="middle" x="55" y="-14.3" font-family="Times,serif" font-size="14.00">a</text>
</g>
<!-- bA -->
<g id="node2" class="node">
<title>bA</title>
<ellipse fill="white" stroke="black" cx="152" cy="-18" rx="27" ry="18"/>
<text text-anchor="middle" x="152" y="-14.3" font-family="Times,serif" font-size="14.00">bA</text>
</g>
<!-- bR -->
<g id="node3" class="node">
<title>bR</title>
<ellipse fill="white" stroke="black" cx="224" cy="-18" rx="27" ry="18"/>
<text text-anchor="middle" x="224" y="-14.3" font-family="Times,serif" font-size="14.00">bR</text>
</g>
<!-- bAR -->
<g id="node4" class="node">
<title>bAR</title>
<ellipse fill="white" stroke="black" cx="299" cy="-18" rx="29.8" ry="18"/>
<text text-anchor="middle" x="299" y="-14.3" font-family="Times,serif" font-size="14.00">bAR</text>
</g>
<!-- sigma -->
<g id="node5" class="node">
<title>sigma</title>
<ellipse fill="white" stroke="black" cx="390" cy="-18" rx="38.19" ry="18"/>
<text text-anchor="middle" x="390" y="-14.3" font-family="Times,serif" font-size="14.00">sigma</text>
</g>
<!-- sigma_loc -->
<g id="node6" class="node">
<title>sigma_loc</title>
<polygon fill="white" stroke="transparent" points="425,-87 355,-87 355,-72 425,-72 425,-87"/>
<text text-anchor="middle" x="390" y="-75.8" font-family="Times,serif" font-size="14.00">sigma_loc</text>
</g>
<!-- sigma_loc&#45;&gt;sigma -->
<g id="edge9" class="edge">
<title>sigma_loc&#45;&gt;sigma</title>
<path fill="none" stroke="black" d="M390,-71.67C390,-65.42 390,-55.74 390,-46.37"/>
<polygon fill="black" stroke="black" points="393.5,-46.13 390,-36.13 386.5,-46.13 393.5,-46.13"/>
</g>
<!-- weights_scale -->
<g id="node7" class="node">
<title>weights_scale</title>
<polygon fill="white" stroke="transparent" points="235,-87 135,-87 135,-72 235,-72 235,-87"/>
<text text-anchor="middle" x="185" y="-75.8" font-family="Times,serif" font-size="14.00">weights_scale</text>
</g>
<!-- weights_scale&#45;&gt;bA -->
<g id="edge4" class="edge">
<title>weights_scale&#45;&gt;bA</title>
<path fill="none" stroke="black" d="M181.21,-71.67C177.48,-64.94 171.55,-54.24 166,-44.24"/>
<polygon fill="black" stroke="black" points="168.99,-42.42 161.08,-35.38 162.87,-45.82 168.99,-42.42"/>
</g>
<!-- weights_scale&#45;&gt;bR -->
<g id="edge6" class="edge">
<title>weights_scale&#45;&gt;bR</title>
<path fill="none" stroke="black" d="M189.47,-71.67C193.99,-64.78 201.24,-53.72 207.94,-43.51"/>
<polygon fill="black" stroke="black" points="211.04,-45.16 213.59,-34.88 205.18,-41.33 211.04,-45.16"/>
</g>
<!-- weights_scale&#45;&gt;bAR -->
<g id="edge7" class="edge">
<title>weights_scale&#45;&gt;bAR</title>
<path fill="none" stroke="black" d="M197.64,-71.91C214.45,-63.13 244.74,-47.32 267.85,-35.26"/>
<polygon fill="black" stroke="black" points="269.69,-38.25 276.93,-30.52 266.45,-32.04 269.69,-38.25"/>
</g>
<!-- a_scale -->
<g id="node8" class="node">
<title>a_scale</title>
<polygon fill="white" stroke="transparent" points="52,-87 0,-87 0,-72 52,-72 52,-87"/>
<text text-anchor="middle" x="26" y="-75.8" font-family="Times,serif" font-size="14.00">a_scale</text>
</g>
<!-- a_scale&#45;&gt;a -->
<g id="edge1" class="edge">
<title>a_scale&#45;&gt;a</title>
<path fill="none" stroke="black" d="M29.33,-71.67C32.57,-65.01 37.72,-54.46 42.55,-44.54"/>
<polygon fill="black" stroke="black" points="45.78,-45.9 47.02,-35.38 39.49,-42.83 45.78,-45.9"/>
</g>
<!-- weights_loc -->
<g id="node9" class="node">
<title>weights_loc</title>
<polygon fill="white" stroke="transparent" points="337,-87 253,-87 253,-72 337,-72 337,-87"/>
<text text-anchor="middle" x="295" y="-75.8" font-family="Times,serif" font-size="14.00">weights_loc</text>
</g>
<!-- weights_loc&#45;&gt;bA -->
<g id="edge3" class="edge">
<title>weights_loc&#45;&gt;bA</title>
<path fill="none" stroke="black" d="M277.44,-71.92C256.13,-63.83 219.17,-49.53 188,-36 186.19,-35.22 184.34,-34.39 182.48,-33.56"/>
<polygon fill="black" stroke="black" points="183.77,-30.3 173.22,-29.29 180.84,-36.65 183.77,-30.3"/>
</g>
<!-- weights_loc&#45;&gt;bR -->
<g id="edge5" class="edge">
<title>weights_loc&#45;&gt;bR</title>
<path fill="none" stroke="black" d="M287.13,-71.91C277.8,-64.09 261.81,-50.69 248.26,-39.33"/>
<polygon fill="black" stroke="black" points="250.13,-36.33 240.22,-32.59 245.63,-41.7 250.13,-36.33"/>
</g>
<!-- weights_loc&#45;&gt;bAR -->
<g id="edge8" class="edge">
<title>weights_loc&#45;&gt;bAR</title>
<path fill="none" stroke="black" d="M295.46,-71.67C295.88,-65.42 296.53,-55.74 297.16,-46.37"/>
<polygon fill="black" stroke="black" points="300.67,-46.34 297.85,-36.13 293.69,-45.87 300.67,-46.34"/>
</g>
<!-- a_loc -->
<g id="node10" class="node">
<title>a_loc</title>
<polygon fill="white" stroke="transparent" points="106,-87 70,-87 70,-72 106,-72 106,-87"/>
<text text-anchor="middle" x="88" y="-75.8" font-family="Times,serif" font-size="14.00">a_loc</text>
</g>
<!-- a_loc&#45;&gt;a -->
<g id="edge2" class="edge">
<title>a_loc&#45;&gt;a</title>
<path fill="none" stroke="black" d="M84.21,-71.67C80.48,-64.94 74.55,-54.24 69,-44.24"/>
<polygon fill="black" stroke="black" points="71.99,-42.42 64.08,-35.38 65.87,-45.82 71.99,-42.42"/>
</g>
</g>
</svg>
